<svg width="18" height="18" viewBox="0 0 18 18" fill="none" xmlns="http://www.w3.org/2000/svg">
<g clip-path="url(#clip0)">
<path d="M17.2873 3.97165L9.11461 0.026209C9.04215 -0.00873632 8.95778 -0.00873632 8.88536 0.026209L0.712626 3.97165C0.621501 4.01563 0.563599 4.10792 0.563599 4.2091V13.7909C0.563599 13.8921 0.621501 13.9844 0.712626 14.0283L8.88532 17.9738C8.92153 17.9913 8.96077 18 8.99997 18C9.03917 18 9.07837 17.9913 9.11461 17.9738L17.2873 14.0283C17.3784 13.9844 17.4363 13.8921 17.4363 13.7909V4.20913C17.4363 4.10788 17.3784 4.01567 17.2873 3.97165ZM8.99997 0.55647L16.5662 4.2091L14.3729 5.26793C14.359 5.25735 14.3443 5.24758 14.3282 5.23981L6.81343 1.61204L8.99997 0.55647ZM6.21795 1.91016L13.7732 5.55748L12.2258 6.30451L4.67368 2.65867L6.21795 1.91016ZM13.9499 6.05768V8.81906L12.5045 9.51684V6.75546L13.9499 6.05768ZM16.909 13.6254L9.26364 17.3162V8.32002L11.0873 7.43964C11.2184 7.37632 11.2734 7.21872 11.2101 7.08755C11.1468 6.95645 10.9892 6.9014 10.858 6.96475L8.99997 7.86176L8.26886 7.50879C8.13769 7.4454 7.98009 7.50046 7.91677 7.63159C7.85345 7.76272 7.90844 7.92036 8.03957 7.98368L8.7363 8.32002V17.3162L1.09094 13.6254V4.62918L6.91281 7.43974C6.94976 7.4576 6.98882 7.46604 7.02725 7.46604C7.12526 7.46604 7.21941 7.41113 7.26487 7.31694C7.32818 7.18581 7.2732 7.02817 7.14207 6.96485L1.43375 4.2091L4.05307 2.9446L11.9736 6.76829C11.9747 6.76991 11.976 6.77135 11.9772 6.77293V9.93696C11.9772 10.0277 12.0239 10.112 12.1007 10.1603C12.1434 10.1871 12.1921 10.2006 12.2409 10.2006C12.28 10.2006 12.3192 10.1919 12.3555 10.1744L14.3282 9.22206C14.4194 9.17808 14.4773 9.08583 14.4773 8.98461V5.80315L16.909 4.62921V13.6254Z" fill="#D8AB37" stroke="#D8AB37" stroke-width="0.4"/>
<path d="M3.26694 12.6028L2.06759 12.0238C1.93638 11.9604 1.77881 12.0155 1.7155 12.1466C1.65218 12.2777 1.70716 12.4354 1.8383 12.4987L3.03765 13.0777C3.0746 13.0955 3.11366 13.104 3.15209 13.104C3.2501 13.104 3.34425 13.0491 3.38971 12.9549C3.45306 12.8237 3.39808 12.6661 3.26694 12.6028Z" fill="#D8AB37" stroke="#D8AB37" stroke-width="0.4"/>
<path d="M4.37072 11.8843L2.06921 10.7732C1.93804 10.7099 1.78044 10.7649 1.71712 10.8961C1.65384 11.0272 1.70883 11.1848 1.83996 11.2482L4.14147 12.3592C4.17842 12.3771 4.21747 12.3855 4.2559 12.3855C4.35391 12.3855 4.44806 12.3306 4.49352 12.2364C4.55684 12.1052 4.50185 11.9476 4.37072 11.8843Z" fill="#D8AB37" stroke="#D8AB37" stroke-width="0.4"/>
</g>
<defs>
<clipPath id="clip0">
<rect width="18" height="18" fill="white"/>
</clipPath>
</defs>
</svg>
