<svg width="16" height="16" viewBox="0 0 16 16" fill="none" xmlns="http://www.w3.org/2000/svg">
<path fill-rule="evenodd" clip-rule="evenodd" d="M6.4714 2.19526C6.73175 2.45561 6.73175 2.87772 6.4714 3.13807L3.60948 6L6.4714 8.86193C6.73175 9.12228 6.73175 9.54439 6.4714 9.80474C6.21105 10.0651 5.78894 10.0651 5.5286 9.80474L2.19526 6.4714C1.93491 6.21106 1.93491 5.78894 2.19526 5.5286L5.5286 2.19526C5.78894 1.93491 6.21105 1.93491 6.4714 2.19526Z" fill="#D8AB37"/>
<path fill-rule="evenodd" clip-rule="evenodd" d="M2 5.99967C2 5.63148 2.29848 5.33301 2.66667 5.33301H10.6667C11.5507 5.33301 12.3986 5.6842 13.0237 6.30932C13.6488 6.93444 14 7.78229 14 8.66634V13.333C14 13.7012 13.7015 13.9997 13.3333 13.9997C12.9651 13.9997 12.6667 13.7012 12.6667 13.333V8.66634C12.6667 8.13591 12.456 7.6272 12.0809 7.25213C11.7058 6.87705 11.1971 6.66634 10.6667 6.66634H2.66667C2.29848 6.66634 2 6.36786 2 5.99967Z" fill="#D8AB37"/>
</svg>
