<svg width="70" height="70" viewBox="0 0 70 70" fill="none" xmlns="http://www.w3.org/2000/svg">
<path d="M69.9842 21.4492C69.9842 21.4416 69.9851 21.434 69.9851 21.4264C69.9851 12.2235 62.5248 4.76318 53.3218 4.76318C44.1189 4.76318 36.6588 12.2233 36.6588 21.4264C36.6588 30.6295 44.1197 38.0897 53.322 38.0897C55.2133 38.0897 57.0238 37.76 58.7179 37.1791C54.9689 58.6857 38.1978 72.5552 53.7444 61.1403C70.9835 48.4824 70.0035 21.9348 69.9842 21.4492Z" fill="#F4F7FD"/>
<path d="M16.6632 38.0895C18.5546 38.0895 20.3651 37.7598 22.0599 37.1789C18.31 58.6855 1.5389 72.5551 17.0857 61.1401C34.3247 48.4824 33.3449 21.9348 33.3255 21.4492C33.3255 21.4416 33.3263 21.434 33.3263 21.4264C33.3263 12.2235 25.8662 4.76318 16.6632 4.76318C7.46014 4.76318 0 12.2233 0 21.4264C0 30.6295 7.46097 38.0895 16.6632 38.0895Z" fill="#F4F7FD"/>
</svg>
