<svg width="15" height="15" viewBox="0 0 15 15" fill="none" xmlns="http://www.w3.org/2000/svg">
<path fill-rule="evenodd" clip-rule="evenodd" d="M1.70711 0.292893C1.31658 -0.0976311 0.683418 -0.0976311 0.292893 0.292893C-0.0976311 0.683418 -0.0976311 1.31658 0.292893 1.70711L5.94975 7.36396L0.292893 13.0208C-0.0976308 13.4113 -0.0976312 14.0445 0.292893 14.435C0.683417 14.8256 1.31658 14.8256 1.70711 14.435L7.36396 8.77817L13.0208 14.435C13.4113 14.8256 14.0445 14.8256 14.435 14.435C14.8256 14.0445 14.8256 13.4113 14.435 13.0208L8.77817 7.36396L14.435 1.70711C14.8256 1.31658 14.8256 0.683417 14.435 0.292893C14.0445 -0.097631 13.4113 -0.097631 13.0208 0.292893L7.36396 5.94975L1.70711 0.292893Z" fill="#5D6978"/>
</svg>
